<svg xmlns="http://www.w3.org/2000/svg" viewBox="0 0 420 210" role="img" aria-labelledby="title desc">
  <title id="title">Ovos Avine</title>
  <desc id="desc">Logo Avine com texto verde e gema amarela.</desc>
  <rect width="420" height="210" rx="26" fill="#f8eceb"/>
  <text x="48" y="98" font-family="Arial, Helvetica, sans-serif" font-size="32" font-weight="700" fill="#111">OVOS</text>
  <path d="M204 78c14-35 58-53 94-37 21 9 31 24 27 39-2 7-8 12-14 15 6-20-8-35-33-41-31-8-59 5-74 24Z" fill="#00833e"/>
  <path d="M222 74c12-20 39-28 57-15 16 11 13 34-4 46-18 12-47 7-56-12-3-7-2-13 3-19Z" fill="#f6bd23"/>
  <text x="44" y="159" font-family="Arial Black, Arial, Helvetica, sans-serif" font-size="96" font-weight="900" letter-spacing="-7" fill="#00833e">avine</text>
</svg>
